<?xml version="1.0" encoding="utf-8"?>
<!-- Generator: Adobe Illustrator 21.0.0, SVG Export Plug-In . SVG Version: 6.00 Build 0)  -->
<svg version="1.1" id="Layer_1" xmlns="http://www.w3.org/2000/svg" xmlns:xlink="http://www.w3.org/1999/xlink" x="0px" y="0px"
	 viewBox="0 0 502.4 243.5" style="enable-background:new 0 0 502.4 243.5;" xml:space="preserve">
<style type="text/css">
	.st0{fill:#428BC4;}
	.st1{fill:#FFFFFF;}
	.st2{fill:#DDE62F;}
</style>
<g>
	<path d="M252.5,224.1c-64.1,0-124.5-10.3-169.9-29c-46.1-19-71.6-44.6-71.6-72c0-27.4,25.4-53,71.6-72c45.4-18.7,105.8-29,169.9-29
		c64.1,0,124.5,10.3,169.9,29c46.1,19,71.6,44.6,71.6,72c0,27.4-25.4,53-71.6,72C377,213.8,316.6,224.1,252.5,224.1z"/>
	<path class="st0" d="M252.5,24.7c131.9,0,238.9,44.1,238.9,98.4s-107,98.4-238.9,98.4S13.6,177.5,13.6,123.1S120.6,24.7,252.5,24.7
		 M252.5,19.6c-64.5,0-125.1,10.4-170.9,29.2C34.4,68.2,8.5,94.6,8.5,123.1s26,54.9,73.1,74.3c45.7,18.8,106.4,29.2,170.9,29.2
		s125.1-10.4,170.9-29.2c47.2-19.4,73.1-45.8,73.1-74.3s-26-54.9-73.1-74.3C377.6,29.9,316.9,19.6,252.5,19.6L252.5,19.6z"/>
</g>
<g>
	<path class="st1" d="M56,118.5l-6.2,17.7c-1.1,3.3-1.6,8.8,8,8.8h35.9l3.1-9.3H64.4c-2.2,0-1.9-0.7-1.8-1.1l5-14.5
		c0.1-0.4,0.4-1.1,2.5-1.1h32.1l3-9.1H69.9C60.4,109.9,57.1,115.2,56,118.5z"/>
	<path class="st1" d="M146.6,109.9h-27.6c-9.4,0-12.6,5.4-13.7,8.6l-8.7,26.4H109l3.4-10.6h25.3l-3.3,10.6h12.3l8.2-26.4
		C155.9,115.2,156.1,109.9,146.6,109.9z M140.4,125.9h-25.2l1.9-5.8c0.1-0.4,0.4-1.1,2.5-1.1h20.9c2.2,0,1.9,0.7,1.8,1.1
		L140.4,125.9z"/>
	<path class="st1" d="M206.6,123.5l1.2-4.2c1.2-4.3,0.6-9.4-9.2-9.4h-37.1l-10.8,35h12.3l3.6-11.9h15.6l7.8,11.9h12.1l0.9-3.1
		l-6.3-9.3C203.1,131,205.6,126.9,206.6,123.5z M194.7,123c-0.2,0.6-0.4,1.5-3,1.5h-22.4l1.7-5.7h22.3c2.6,0,2.3,0.9,2.1,1.5
		L194.7,123z"/>
	<g>
		<path class="st0" d="M353.3,109.9h-27.6c-9.4,0-12.2,5.4-13,8.6l-6.8,26.4h12.3l2.7-10.6h25.3l-2.6,10.6h12.3l6.3-26.4
			C362.9,115.2,362.8,109.9,353.3,109.9z M348.2,125.9h-25.2l1.5-5.8c0.1-0.4,0.3-1.1,2.4-1.1h20.9c2.2,0,2,0.7,1.9,1.1L348.2,125.9
			z"/>
	</g>
	<path class="st0" d="M399.8,121h-21.5c-1,0-1.4-0.2-1.5-0.3l0.4-1.5c0.2-0.1,0.7-0.2,1.7-0.2h32.2l2-9.1h-34.8
		c-9,0-11.9,4.4-12.8,8.1l-0.8,3.2c-0.9,3.7,0,8.2,9,8.2h21.5c2.8,0,2.6,1,2.5,1.5l-0.7,3.3c-0.1,0.5-0.3,1.5-3.1,1.5h-32.5
		l-2.2,9.3h35.3c10.1,0,13.4-5.2,14.3-9.6l1-4.8C410.8,126.1,409.8,121,399.8,121z"/>
	<polygon class="st0" points="456.4,109.9 454.2,121 427.2,121 429.5,109.9 417.4,109.9 409.9,144.9 422.1,144.9 425.4,129.3 
		452.5,129.3 449.4,144.9 461.7,144.9 468.6,109.9 	"/>
</g>
<path class="st1" d="M23.9,129c0,0,16.2-35.2,64.6-41.7s83,5.4,99-0.9s38.9-37.6,74.1-41.9s82.6,7.1,103.1,13.6
	c20.5,6.5,81.7,17.5,81.7,19.7s-12.5,7.8-37.8,3.9c-25.3-3.9-86.7-27.2-127.1-27.2S193.1,92,193.1,92l13.1-2.2
	c0.9-0.1,1.5,0.9,0.9,1.5c-2.4,2.9-9.5,8-29.1,6.5c-27-1.9-59.4-6.3-91-0.4c-31.6,5.8-57.5,27.4-60.3,31.6S23.9,129,23.9,129z"/>
<path class="st1" d="M241.9,72.4c0,0-12,12.2-11.4,15.3c0.6,3.1,22.6,4.9,24.6,6s0.8,3.2-12.3,3c-13.1-0.2-24.3,0.5-23.9-7.4
	s10.1-10,14.6-13.6C237.9,72.1,241.2,71,241.9,72.4z"/>
<path class="st0" d="M124.4,174.9c0,0,38.7,20.5,79.9,8c41.2-12.5,104.1-38.5,164.7-25.7c0,0-57.1-2.8-96.7,13.2s-63.1,26.5-92.7,27
	S124.4,174.9,124.4,174.9z"/>
<path class="st0" d="M222.3,109.9h14.3l12.3,30.2l9.7-21l-4.6-9.3h14.3l13.4,32.1c0,0,27.6-71.2,56.2-72.8
	c28.6-1.6,21.1,26.3,21.1,26.3S334.8,88,315,110.6c-19.8,22.6-29.8,36.8-36.3,52.3h-4.1l-13.6-34.7L244.4,167L222.3,109.9z"/>
<g>
	<path class="st2" d="M143.7,164.1v-2.6h-3.8v14h3.8v-5.4c0-1.7,0.4-2.9,1.2-3.7c0.8-0.8,2-1.2,3.7-1.2v-4.1c-1.4,0-2.5,0.3-3.3,0.9
		S143.9,163.3,143.7,164.1z"/>
	<path class="st2" d="M157.4,161.2c-2.1,0-3.8,0.7-5.3,2.1c-1.5,1.4-2.2,3.1-2.2,5.2s0.7,3.7,2.2,5.2c1.5,1.4,3.2,2.1,5.3,2.1
		c2.1,0,3.8-0.7,5.3-2.1c1.5-1.4,2.2-3.1,2.2-5.2s-0.7-3.7-2.2-5.2C161.2,161.9,159.4,161.2,157.4,161.2z M159.9,171
		c-0.7,0.7-1.6,1.1-2.6,1.1c-1,0-1.9-0.4-2.6-1.1c-0.7-0.7-1.1-1.6-1.1-2.6s0.4-1.9,1.1-2.6c0.7-0.7,1.6-1.1,2.6-1.1
		c1,0,1.9,0.4,2.6,1.1c0.7,0.7,1.1,1.6,1.1,2.6S160.7,170.3,159.9,171z"/>
	<path class="st2" d="M191.5,163.3c-1.1-1.4-2.5-2.1-4.2-2.1c-1.9,0-3.5,0.7-4.7,2.1c-1.2,1.4-1.8,3.1-1.8,5.2s0.6,3.8,1.8,5.2
		c1.2,1.4,2.8,2.1,4.7,2.1c1.7,0,3.1-0.7,4.2-2.1v1.8h3.8v-14h-3.8V163.3z M190.6,171.1c-0.6,0.7-1.4,1-2.4,1c-1,0-1.8-0.3-2.4-1
		c-0.6-0.7-0.9-1.6-0.9-2.6s0.3-2,0.9-2.6c0.6-0.7,1.4-1,2.4-1c1,0,1.8,0.3,2.4,1c0.6,0.7,0.9,1.6,0.9,2.6S191.2,170.4,190.6,171.1z
		"/>
	<rect x="198.6" y="157" class="st2" width="3.8" height="18.4"/>
	<path class="st2" d="M173.4,171.1l-1.2-3.1l-2.8-6.6h-3.8l5.9,12.4l-0.3,0.4c-0.3,0.6-0.6,1-1,1.3c-0.4,0.3-1.1,0.4-1.9,0.4v3.5
		c2.8,0,4.8-1.2,5.8-3.5l6.3-14.6h-3.8L173.4,171.1z"/>
</g>
</svg>
